<svg width="760" height="400" viewBox="0 0 760 400" fill="none" xmlns="http://www.w3.org/2000/svg">
<rect width="760" height="400" fill="#181B23"/>
<path d="M30 200.742C30 184.551 33.6156 171.657 40.8468 162.058C48.142 152.459 58.0929 147.659 70.6995 147.659C80.8104 147.659 89.1615 151.435 95.7528 158.986V106H123.59V253.44H98.5365L97.1926 242.401C90.2814 251.04 81.3864 255.36 70.5076 255.36C58.2849 255.36 48.462 250.56 41.0388 240.961C33.6796 231.298 30 217.892 30 200.742ZM57.741 202.757C57.741 212.484 59.4368 219.94 62.8284 225.123C66.22 230.306 71.1475 232.898 77.6108 232.898C86.1858 232.898 92.2332 229.282 95.7528 222.051V181.064C92.2972 173.833 86.3138 170.217 77.8028 170.217C64.4282 170.217 57.741 181.064 57.741 202.757Z" fill="#EEEEF2"/>
<path d="M205.277 253.44C203.997 250.944 203.069 247.84 202.493 244.129C195.774 251.616 187.039 255.36 176.288 255.36C166.113 255.36 157.666 252.416 150.947 246.529C144.291 240.641 140.964 233.218 140.964 224.259C140.964 213.252 145.027 204.805 153.154 198.918C161.346 193.03 173.152 190.055 188.575 189.991H201.341V184.039C201.341 179.24 200.093 175.4 197.598 172.521C195.166 169.641 191.294 168.201 185.983 168.201C181.311 168.201 177.632 169.321 174.944 171.561C172.32 173.801 171.009 176.872 171.009 180.776H143.268C143.268 174.76 145.123 169.193 148.835 164.074C152.547 158.954 157.794 154.955 164.577 152.075C171.36 149.131 178.976 147.659 187.423 147.659C200.221 147.659 210.364 150.891 217.851 157.354C225.403 163.754 229.178 172.777 229.178 184.423V229.442C229.242 239.297 230.618 246.753 233.306 251.808V253.44H205.277ZM182.335 234.146C186.431 234.146 190.206 233.25 193.662 231.458C197.118 229.602 199.677 227.139 201.341 224.067V206.213H190.974C177.088 206.213 169.697 211.012 168.801 220.611L168.705 222.243C168.705 225.699 169.921 228.547 172.352 230.786C174.784 233.026 178.112 234.146 182.335 234.146Z" fill="#EEEEF2"/>
<path d="M306.738 224.739C306.738 221.347 305.042 218.692 301.65 216.772C298.323 214.788 292.947 213.028 285.524 211.492C260.823 206.309 248.472 195.814 248.472 180.008C248.472 170.793 252.28 163.114 259.895 156.97C267.574 150.763 277.589 147.659 289.939 147.659C303.122 147.659 313.649 150.763 321.52 156.97C329.455 163.178 333.423 171.241 333.423 181.16H305.682C305.682 177.192 304.402 173.929 301.842 171.369C299.282 168.745 295.283 167.433 289.843 167.433C285.172 167.433 281.556 168.489 278.997 170.601C276.437 172.713 275.157 175.4 275.157 178.664C275.157 181.736 276.597 184.231 279.477 186.151C282.42 188.007 287.348 189.639 294.259 191.047C301.17 192.391 306.994 193.926 311.729 195.654C326.383 201.03 333.711 210.341 333.711 223.587C333.711 233.058 329.647 240.737 321.52 246.625C313.393 252.448 302.898 255.36 290.035 255.36C281.332 255.36 273.589 253.824 266.806 250.752C260.087 247.616 254.807 243.361 250.968 237.986C247.128 232.546 245.208 226.691 245.208 220.419H271.509C271.765 225.347 273.589 229.122 276.981 231.746C280.373 234.37 284.916 235.682 290.611 235.682C295.923 235.682 299.922 234.69 302.61 232.706C305.362 230.658 306.738 228.003 306.738 224.739Z" fill="#EEEEF2"/>
<path d="M378.73 160.906C386.089 152.075 395.336 147.659 406.471 147.659C428.996 147.659 440.419 160.746 440.739 186.919V253.44H412.998V187.687C412.998 181.736 411.718 177.352 409.158 174.536C406.599 171.657 402.343 170.217 396.392 170.217C388.265 170.217 382.377 173.353 378.73 179.624V253.44H350.989V106H378.73V160.906Z" fill="#EEEEF2"/>
<path d="M457.633 200.742C457.633 184.807 461.409 171.977 468.96 162.25C476.575 152.523 486.814 147.659 499.676 147.659C511.067 147.659 519.93 151.563 526.266 159.37L527.417 149.579H552.567V249.984C552.567 259.071 550.487 266.974 546.327 273.694C542.232 280.413 536.44 285.532 528.953 289.052C521.466 292.572 512.699 294.331 502.652 294.331C495.037 294.331 487.614 292.796 480.383 289.724C473.151 286.716 467.68 282.813 463.968 278.013L476.255 261.119C483.166 268.862 491.549 272.734 501.404 272.734C508.763 272.734 514.491 270.75 518.586 266.782C522.682 262.879 524.73 257.311 524.73 250.08V244.513C518.33 251.744 509.915 255.36 499.484 255.36C487.006 255.36 476.895 250.496 469.152 240.769C461.473 230.978 457.633 218.02 457.633 201.893V200.742ZM485.374 202.757C485.374 212.164 487.262 219.556 491.037 224.931C494.813 230.242 499.996 232.898 506.588 232.898C515.035 232.898 521.082 229.73 524.73 223.395V179.72C521.018 173.385 515.035 170.217 506.78 170.217C500.124 170.217 494.877 172.937 491.037 178.376C487.262 183.815 485.374 191.943 485.374 202.757Z" fill="#EEEEF2"/>
<path d="M569.653 200.55C569.653 190.247 571.637 181.064 575.604 173.001C579.572 164.938 585.267 158.698 592.69 154.283C600.177 149.867 608.848 147.659 618.703 147.659C632.718 147.659 644.141 151.947 652.972 160.522C661.867 169.097 666.826 180.744 667.85 195.462L668.042 202.565C668.042 218.5 663.594 231.298 654.699 240.961C645.804 250.56 633.87 255.36 618.895 255.36C603.921 255.36 591.954 250.56 582.995 240.961C574.1 231.362 569.653 218.308 569.653 201.797V200.55ZM597.394 202.565C597.394 212.42 599.25 219.971 602.961 225.219C606.673 230.402 611.984 232.994 618.895 232.994C625.615 232.994 630.862 230.434 634.638 225.315C638.413 220.131 640.301 211.876 640.301 200.55C640.301 190.887 638.413 183.4 634.638 178.088C630.862 172.777 625.551 170.121 618.703 170.121C611.92 170.121 606.673 172.777 602.961 178.088C599.25 183.336 597.394 191.495 597.394 202.565Z" fill="#EEEEF2"/>
<path d="M698.611 235.554C698.611 231.138 700.083 227.555 703.027 224.803C706.035 222.051 709.778 220.675 714.258 220.675C718.801 220.675 722.545 222.051 725.488 224.803C728.496 227.555 730 231.138 730 235.554C730 239.905 728.528 243.457 725.584 246.209C722.641 248.896 718.865 250.24 714.258 250.24C709.714 250.24 705.971 248.896 703.027 246.209C700.083 243.457 698.611 239.905 698.611 235.554Z" fill="#D53F8C"/>
</svg>
